<?xml version="1.0" encoding="UTF-8"?>
<svg id="Capa_2" data-name="Capa 2" xmlns="http://www.w3.org/2000/svg" viewBox="0 0 333.91 59.66">
  <g id="Capa_1-2" data-name="Capa 1">
    <g>
      <polygon points=".03 0 333.91 0 333.9 2.68 333.01 2.86 .1 2.86 .03 0"/>
      <path d="M333.9,56.98v2.47c-.03.06-.49.2-.69.2H.18c-.23-1.02-.29-2.06.11-2.87h332.72c.35,0,.74.1.89.2Z"/>
      <path d="M195.14,42.63l.5-19.4c.01-.49.06-.84-.08-1.35l-6.39,26.96h-12.82s-6.01-26.96-6.01-26.96l.43,20.74c.04,2.13,1.37,4.05,1.62,6.23h-13.82s1.71-6.13,1.71-6.13v-26.39s-1.72-6.12-1.72-6.12h21.76c.19,1.74-.27,3.51.07,5.17l3.52,17.14,3.67-17.26c.34-1.62-.1-3.34.1-5.05h21.11s-1.74,6.23-1.74,6.23v26.19s1.75,6.23,1.75,6.23h-15.25c.3-2.17,1.56-4.02,1.62-6.21Z"/>
      <polygon points="333.07 48.84 315.04 48.84 316.78 42.76 316.8 34.69 308.1 34.7 308.09 42.57 309.86 48.84 291.84 48.84 293.61 42.58 293.61 16.44 291.84 10.2 309.86 10.2 308.09 16.47 308.1 24.55 316.8 24.56 316.78 16.28 315.06 10.2 333.08 10.2 331.33 16.34 331.32 42.56 333.07 48.84"/>
      <path d="M274.31,49.72c-6.17.38-12.05-.28-18.17-1.17l-2.09-13.84,8.59,4.62c2.63.67,5.22,1.04,7.95,1.21,1.96-.07,3.85-.5,3.94-2.1.04-.74-.39-1.53-1.15-1.88-3.68-1.69-8.24-1.58-13.72-4.71-3.64-2.07-5.53-5.57-5.58-9.71-.06-4.93,2.5-9.11,7.15-11.03,2.91-1.29,6.07-1.77,9.37-1.85,5.13-.11,10.11.32,15.24.91l1.98,13.21-8.15-3.96c-2.64-.68-5.29-.92-8.02-.78-.89.19-1.86.43-2.43,1.08-.77.87-.24,2.14.75,2.68,3.46,1.87,8.79,1.67,14.39,5.25,3.22,2.06,4.94,5.25,4.95,9.05,0,8.37-6.98,12.53-14.98,13.02Z"/>
      <path d="M141.05,49.72c-6.2.39-12.18-.29-18.21-1.17l-2.08-13.82,8.61,4.62,6.54,1.12c2.46.11,5.19,0,5.32-2.06s-3.64-2.81-6.46-3.45c-7.35-1.66-14.05-4.82-13.99-13.03.03-4.57,2.25-8.51,6.48-10.51,3.11-1.52,6.53-2.08,10.1-2.16,5.13-.1,10.11.33,15.18.91l1.97,13.2-8.26-3.98c-2.31-.57-4.63-.77-7.05-.83-1.91.14-3.76.77-3.66,2.22.24,3.25,8.29,2.51,15.17,6.65,3.4,2.04,5.28,5.33,5.28,9.27,0,4.28-1.96,8.05-5.67,10.3-2.78,1.67-5.86,2.51-9.28,2.72Z"/>
      <path d="M59.34,43.77h-13.46s0,5.08,0,5.08h-14.55s14.23-33.63,14.23-33.63l-1.96-5.01,17.2-.02,15.99,38.64h-17.42s-.02-5.07-.02-5.07ZM56.17,35.06l-3.51-9.51-3.57,9.5h7.09Z"/>
      <path d="M237.28,43.77h-13.47s-.02,5.07-.02,5.07h-14.51s14.23-33.62,14.23-33.62l-1.95-5.02h17.2s15.99,38.63,15.99,38.63h-17.47s0-5.06,0-5.06ZM234.14,35.05l-3.52-9.53-3.57,9.53h7.09Z"/>
      <path d="M31.23,37.77c-1.17-.11-2.38-.9-3.56-.91l-10.42-.07v5.83s2.95,6.22,2.95,6.22H1s1.76-6.21,1.76-6.21v-26.21s-1.75-6.21-1.75-6.21h32.73s1.74,11.55,1.74,11.55l-6.33-1.77h-11.89s0,7.24,0,7.24h10.45s3.52-1,3.52-1v11.55Z"/>
      <polygon points="99.33 48.84 79 48.84 81.9 42.63 81.9 20.35 76.74 20.33 70.35 22.1 72.17 10.2 106.17 10.2 107.99 22.11 101.73 20.35 96.45 20.34 96.45 42.62 99.33 48.84"/>
    </g>
  </g>
</svg>