<?xml version="1.0" encoding="UTF-8"?>
<svg id="Capa_2" data-name="Capa 2" xmlns="http://www.w3.org/2000/svg" viewBox="0 0 332.09 40.58">
  <g id="Capa_1-2" data-name="Capa 1">
    <g>
      <path d="M194.15,33.39l.5-19.4c.01-.49.06-.84-.08-1.35l-6.39,26.96h-12.82s-6.01-26.96-6.01-26.96l.43,20.74c.04,2.13,1.37,4.05,1.62,6.23h-13.82s1.71-6.13,1.71-6.13V7.08s-1.72-6.12-1.72-6.12h21.76c.19,1.74-.27,3.51.07,5.17l3.52,17.14,3.67-17.26c.34-1.62-.1-3.34.1-5.05h21.11s-1.74,6.23-1.74,6.23v26.19s1.75,6.23,1.75,6.23h-15.25c.3-2.17,1.56-4.02,1.62-6.21Z"/>
      <polygon points="332.08 39.59 314.04 39.6 315.78 33.52 315.8 25.45 307.1 25.45 307.1 33.32 308.87 39.59 290.84 39.59 292.61 33.33 292.61 7.19 290.84 .95 308.86 .95 307.09 7.22 307.1 15.3 315.8 15.31 315.78 7.03 314.06 .95 332.09 .95 330.34 7.09 330.33 33.31 332.08 39.59"/>
      <path d="M273.31,40.47c-6.17.38-12.05-.28-18.17-1.17l-2.09-13.84,8.59,4.62c2.63.67,5.22,1.04,7.95,1.21,1.96-.07,3.85-.5,3.94-2.1.04-.74-.39-1.53-1.15-1.88-3.68-1.69-8.24-1.58-13.72-4.71-3.64-2.07-5.53-5.57-5.58-9.71-.06-4.93,2.5-9.11,7.15-11.03,2.91-1.29,6.07-1.77,9.37-1.85,5.13-.11,10.11.32,15.24.91l1.98,13.21-8.15-3.96c-2.64-.68-5.29-.92-8.02-.78-.89.19-1.86.43-2.43,1.08-.77.87-.24,2.14.75,2.68,3.46,1.87,8.79,1.67,14.39,5.25,3.22,2.06,4.94,5.25,4.95,9.05,0,8.37-6.98,12.53-14.98,13.02Z"/>
      <path d="M140.05,40.47c-6.2.39-12.18-.29-18.21-1.17l-2.08-13.82,8.61,4.62,6.54,1.12c2.46.11,5.19,0,5.32-2.06s-3.64-2.81-6.46-3.45c-7.35-1.66-14.05-4.82-13.99-13.03.03-4.57,2.25-8.51,6.48-10.51,3.11-1.52,6.53-2.08,10.1-2.16,5.13-.1,10.11.33,15.18.91l1.97,13.2-8.26-3.98c-2.31-.57-4.63-.77-7.05-.83-1.91.14-3.76.77-3.66,2.22.24,3.25,8.29,2.51,15.17,6.65,3.4,2.04,5.28,5.33,5.28,9.27,0,4.28-1.96,8.05-5.67,10.3-2.78,1.67-5.86,2.51-9.28,2.72Z"/>
      <path d="M58.35,34.52h-13.46s0,5.08,0,5.08h-14.55S44.56,5.97,44.56,5.97l-1.96-5.01,17.2-.02,15.99,38.64h-17.42s-.02-5.07-.02-5.07ZM55.17,25.81l-3.51-9.51-3.57,9.5h7.09Z"/>
      <path d="M236.28,34.52h-13.47s-.02,5.07-.02,5.07h-14.51s14.23-33.62,14.23-33.62l-1.95-5.02h17.2s15.99,38.63,15.99,38.63h-17.47s0-5.06,0-5.06ZM233.14,25.81l-3.52-9.53-3.57,9.53h7.09Z"/>
      <path d="M30.24,28.52c-1.17-.11-2.38-.9-3.56-.91l-10.42-.07v5.83s2.95,6.22,2.95,6.22H0s1.76-6.21,1.76-6.21V7.17S0,.95,0,.95h32.73s1.74,11.55,1.74,11.55l-6.33-1.77h-11.89s0,7.24,0,7.24h10.45s3.52-1,3.52-1v11.55Z"/>
      <polygon points="98.33 39.59 78 39.59 80.91 33.38 80.91 11.1 75.74 11.09 69.36 12.85 71.17 .95 105.17 .95 106.99 12.86 100.73 11.1 95.46 11.09 95.45 33.37 98.33 39.59"/>
    </g>
  </g>
</svg>